<svg width="22" height="24" viewBox="0 0 22 24" fill="none" xmlns="http://www.w3.org/2000/svg">
<g filter="url(#filter0_d_7_2)">
<path d="M9.99574 9.29545H12.5526L13.6392 10.6825L15.0646 12.3189L17.2571 15.0227H14.3935L12.8594 13.1882L11.9517 11.8842L9.99574 9.29545ZM17.3466 7.45455C17.3466 8.89489 17.0696 10.1158 16.5156 11.1172C15.9616 12.1186 15.2116 12.8793 14.2656 13.3991C13.3239 13.919 12.267 14.179 11.0952 14.179C9.91903 14.179 8.86009 13.9169 7.91832 13.3928C6.97656 12.8686 6.22869 12.108 5.67472 11.1108C5.125 10.1094 4.85014 8.89062 4.85014 7.45455C4.85014 6.0142 5.125 4.79332 5.67472 3.7919C6.22869 2.79048 6.97656 2.02983 7.91832 1.50994C8.86009 0.990056 9.91903 0.730113 11.0952 0.730113C12.267 0.730113 13.3239 0.990056 14.2656 1.50994C15.2116 2.02983 15.9616 2.79048 16.5156 3.7919C17.0696 4.79332 17.3466 6.0142 17.3466 7.45455ZM14.1122 7.45455C14.1122 6.60227 13.9908 5.8821 13.7479 5.29403C13.5092 4.70597 13.1641 4.26065 12.7124 3.9581C12.2649 3.65554 11.7259 3.50426 11.0952 3.50426C10.4688 3.50426 9.92969 3.65554 9.47798 3.9581C9.02628 4.26065 8.67898 4.70597 8.43608 5.29403C8.19744 5.8821 8.07812 6.60227 8.07812 7.45455C8.07812 8.30682 8.19744 9.02699 8.43608 9.61506C8.67898 10.2031 9.02628 10.6484 9.47798 10.951C9.92969 11.2536 10.4688 11.4048 11.0952 11.4048C11.7259 11.4048 12.2649 11.2536 12.7124 10.951C13.1641 10.6484 13.5092 10.2031 13.7479 9.61506C13.9908 9.02699 14.1122 8.30682 14.1122 7.45455Z" fill="#BFBEFF"/>
</g>
<defs>
<filter id="filter0_d_7_2" x="0.850143" y="0.73011" width="20.4964" height="22.2926" filterUnits="userSpaceOnUse" color-interpolation-filters="sRGB">
<feFlood flood-opacity="0" result="BackgroundImageFix"/>
<feColorMatrix in="SourceAlpha" type="matrix" values="0 0 0 0 0 0 0 0 0 0 0 0 0 0 0 0 0 0 127 0" result="hardAlpha"/>
<feOffset dy="4"/>
<feGaussianBlur stdDeviation="2"/>
<feComposite in2="hardAlpha" operator="out"/>
<feColorMatrix type="matrix" values="0 0 0 0 0 0 0 0 0 0 0 0 0 0 0 0 0 0 0.25 0"/>
<feBlend mode="normal" in2="BackgroundImageFix" result="effect1_dropShadow_7_2"/>
<feBlend mode="normal" in="SourceGraphic" in2="effect1_dropShadow_7_2" result="shape"/>
</filter>
</defs>
</svg>
